<svg t="1615284785879" class="icon" viewBox="0 0 1024 1024" version="1.1" xmlns="http://www.w3.org/2000/svg" p-id="3080" width="200" height="200"><path d="M275.99960938 566.79980469c-2.59980469 7.88027344-3.99902344 16.32041016-3.99902344 25.08046875v79.959375a79.99980469 79.99980469 0 0 0 79.99980468 80.00068359h79.99980469A79.99980469 79.99980469 0 0 0 512 671.83964844v-79.959375c0-8.80048828-1.40009766-17.20019531-3.99990234-25.12001953 119.35986328 31.92011719 204.00029297 111.71953125 204.00029296 205.07958984v60.16025391a79.99980469 79.99980469 0 0 1-80.00068359 79.99980468H152a79.99980469 79.99980469 0 0 1-79.99980469-79.99980468V771.83984375c0-93.36005859 84.63955078-173.15947266 203.99941407-205.07958984zM821.04101563 832.68037109a79.59990234 79.59990234 0 0 0 10.95996093-40.48066406v-60.19980469c0-87.99960937-79.91982422-163.99951172-195.35976562-199.16015625 46.19970703-43.99980469 75.36005859-108.67939453 75.36005859-180.83935547 0-43.56035156-10.64003906-84.40048828-29.20078125-119.60068359 83.3203125 6.24023438 149.20048828 84.28007813 149.20048828 179.60009766 0 62.20019531-28.00019531 117.04042969-70.67988281 149.36044922 110.83974609 23.99941406 190.67958984 91.32011719 190.67958984 170.63964843v60.6796875a39.99990234 39.99990234 0 0 1-39.99902343 40.00078125H821.03925781zM392.00029297 591.88027344a39.99990234 39.99990234 0 0 1 39.99902344 39.99902343v40.00078125a39.99990234 39.99990234 0 1 1-79.99892579 0v-39.99990234a39.99990234 39.99990234 0 0 1 39.99902344-39.99990234z m0-39.99990235c-110.44072266 0-200.00039063-98.48056641-200.00039063-219.91992187 0-121.48066406 89.56054688-219.96035156 200.00039063-219.96035156s199.99951172 98.4796875 199.99951172 219.95947265c0 121.44023437-89.56054688 219.91992188-199.99951172 219.91992188z" p-id="3081"></path></svg>