<svg t="1620315861419" class="icon" viewBox="0 0 1585 1024" version="1.1" xmlns="http://www.w3.org/2000/svg" p-id="2072" width="200" height="200"><path d="M1316.973163 1023.999841h-1048.486787a268.922585 268.922585 0 0 1-130.089293-33.707026l-36.403588-20.224215 493.411378-503.40452L721.013115 594.830089a117.875453 117.875453 0 0 0 166.433398-0.099138L1015.176314 467.139944l481.594091 481.693229-28.353557 28.33373-2.597424 1.744834a267.316544 267.316544 0 0 1-148.846261 45.088104zM208.924078 951.728012a205.018029 205.018029 0 0 0 59.482988 8.882793h1048.486786a204.224922 204.224922 0 0 0 83.851184-17.844896L1015.176314 556.860116l-82.760663 82.760663a181.403283 181.403283 0 0 1-256.252709 0l-0.237932-0.218105-80.420998-82.086522z" fill="#1296db" p-id="2073"></path><path d="M1468.615124 47.011606l-0.198276-0.198277-2.557769-1.705179A267.118267 267.118267 0 0 0 1316.973163 0.000218h-1048.486787a268.803619 268.803619 0 0 0-108.120243 22.781984l-0.832762-0.852589L138.397083 33.707244A268.803619 268.803619 0 0 0 0 268.486594V755.434155c0 148.112638 120.433221 268.565687 268.486376 268.565686h1048.486787c148.033327 0 268.486376-120.453049 268.486376-268.486376V268.486594a268.089823 268.089823 0 0 0-116.844415-221.474988zM268.486376 63.448738h1048.486787a204.006818 204.006818 0 0 1 83.851184 17.844896L887.446513 594.830089a117.875453 117.875453 0 0 1-166.413571 0.118966L208.943906 72.33153A204.780097 204.780097 0 0 1 268.486376 63.448738z m1253.524643 691.985417a205.275789 205.275789 0 0 1-205.037856 205.117167h-1048.486787A205.275789 205.275789 0 0 1 63.44852 755.434155V268.486594a205.196478 205.196478 0 0 1 85.615846-166.552364l526.761506 537.468444 0.237932 0.218105a181.403283 181.403283 0 0 0 256.252708 0L1455.013348 116.983426a204.680959 204.680959 0 0 1 66.997671 151.562651z" fill="#1296db" p-id="2074"></path></svg>